<svg width="99" height="42" viewBox="0 0 99 42" fill="none" xmlns="http://www.w3.org/2000/svg">
<rect x="14.5254" y="0.5" width="69.95" height="41.075" stroke="#A48058"/>
<path fill-rule="evenodd" clip-rule="evenodd" d="M68.9709 42.075C67.754 32.4048 59.5007 24.925 49.5005 24.925C39.5002 24.925 31.247 32.4048 30.0301 42.075H29.0225C30.2452 31.851 38.9472 23.925 49.5005 23.925C60.0537 23.925 68.7557 31.851 69.9785 42.075H68.9709ZM49.5651 65.1749H49.4358C49.4574 65.175 49.4789 65.175 49.5005 65.175C49.522 65.175 49.5436 65.175 49.5651 65.1749Z" fill="#A48058"/>
<path fill-rule="evenodd" clip-rule="evenodd" d="M59.2163 42.075C58.9913 37.1564 54.7627 33.175 49.5008 33.175C44.2388 33.175 40.0102 37.1564 39.7852 42.075H38.7842C39.0094 36.5708 43.7212 32.175 49.5008 32.175C55.2803 32.175 59.9921 36.5708 60.2173 42.075H59.2163Z" fill="#A48058"/>
<line x1="14.0254" y1="7.75" x2="84.9754" y2="7.75" stroke="#A48058"/>
<line y1="41.575" x2="99" y2="41.575" stroke="#A48058"/>
<line x1="49" y1="24.75" x2="49" y2="8.25" stroke="#A48058"/>
<line x1="58.6269" y1="27.0106" x2="67.6921" y2="7.57031" stroke="#A48058"/>
<line y1="-0.5" x2="21.45" y2="-0.5" transform="matrix(0.422618 0.906308 0.906308 -0.422618 31.0303 7.78162)" stroke="#A48058"/>
<line x1="66.5174" y1="33.6277" x2="84.7204" y2="19.4059" stroke="#A48058"/>
<line y1="-0.5" x2="22.275" y2="-0.5" transform="matrix(0.788011 0.615661 0.615661 -0.788011 14.8496 19.8)" stroke="#A48058"/>
</svg>
